<?xml version="1.0" encoding="UTF-8" standalone="no"?>
<!-- Created with Inkscape (http://www.inkscape.org/) -->

<svg
   xmlns:dc="http://purl.org/dc/elements/1.1/"
   xmlns:cc="http://creativecommons.org/ns#"
   xmlns:rdf="http://www.w3.org/1999/02/22-rdf-syntax-ns#"
   xmlns:svg="http://www.w3.org/2000/svg"
   xmlns="http://www.w3.org/2000/svg"
   xmlns:sodipodi="http://sodipodi.sourceforge.net/DTD/sodipodi-0.dtd"
   xmlns:inkscape="http://www.inkscape.org/namespaces/inkscape"
   version="1.1"
   id="svg2"
   xml:space="preserve"
   width="20.568399"
   height="35.024265"
   viewBox="0 0 20.568399 35.024265"
   sodipodi:docname="ok.svg"
   inkscape:version="0.92.1 r15371"><metadata
     id="metadata8"><rdf:RDF><cc:Work
         rdf:about=""><dc:format>image/svg+xml</dc:format><dc:type
           rdf:resource="http://purl.org/dc/dcmitype/StillImage" /><dc:title></dc:title></cc:Work></rdf:RDF></metadata><defs
     id="defs6"><clipPath
       clipPathUnits="userSpaceOnUse"
       id="clipPath18"><path
         d="M 0,0 H 15.426 V 26.268 H 0 Z"
         id="path16"
         inkscape:connector-curvature="0" /></clipPath></defs><sodipodi:namedview
     pagecolor="#ffffff"
     bordercolor="#666666"
     borderopacity="1"
     objecttolerance="10"
     gridtolerance="10"
     guidetolerance="10"
     inkscape:pageopacity="0"
     inkscape:pageshadow="2"
     inkscape:window-width="1920"
     inkscape:window-height="1027"
     id="namedview4"
     showgrid="false"
     inkscape:zoom="6.7381856"
     inkscape:cx="-8.1925843"
     inkscape:cy="11.575816"
     inkscape:window-x="-8"
     inkscape:window-y="-8"
     inkscape:window-maximized="1"
     inkscape:current-layer="g10" /><g
     id="g10"
     inkscape:groupmode="layer"
     inkscape:label="Vector Smart Object"
     transform="matrix(1.3333333,0,0,-1.3333333,0,35.024267)"><g
       id="g12"><g
         id="g14"
         clip-path="url(#clipPath18)"><g
           id="g20"
           transform="translate(15.1947,12.1598)"><path
             d="m 0,0 c -0.366,0.753 -1.38,1.38 -2.731,0.29 -1.824,-1.468 -4.75,-1.468 -4.75,-1.468 0,0 -2.93,0 -4.753,1.468 -1.349,1.09 -2.364,0.463 -2.729,-0.29 -0.64,-1.317 0.084,-1.952 1.711,-3.021 1.391,-0.918 3.302,-1.258 4.539,-1.384 l -1.033,-1.057 c -1.45,-1.486 -2.852,-2.924 -3.823,-3.918 -0.58,-0.593 -0.58,-1.562 0,-2.154 l 0.174,-0.181 c 0.582,-0.593 1.527,-0.593 2.105,0 l 3.825,3.918 c 1.451,-1.486 2.852,-2.925 3.825,-3.918 0.584,-0.593 1.525,-0.593 2.103,0 l 0.178,0.181 c 0.582,0.592 0.582,1.561 0,2.154 l -3.827,3.918 -1.03,1.061 c 1.234,0.126 3.125,0.471 4.503,1.38 C -0.084,-1.952 0.64,-1.317 0,0 m -0.99,7.458 c 0,3.672 -2.909,6.65 -6.491,6.65 -3.585,0 -6.492,-2.978 -6.492,-6.65 0,-3.672 2.907,-6.647 6.492,-6.647 3.582,0 6.491,2.975 6.491,6.647 m -3.299,0 c 0,-1.804 -1.43,-3.269 -3.192,-3.269 -1.763,0 -3.193,1.465 -3.193,3.269 0,1.808 1.43,3.271 3.193,3.271 1.762,0 3.192,-1.463 3.192,-3.271"
             style="fill:#f5f3d1;fill-opacity:1;fill-rule:nonzero;stroke:none"
             id="path22"
             inkscape:connector-curvature="0" /></g></g></g></g></svg>