<?xml version="1.0" encoding="UTF-8" standalone="no"?>
<!-- Created with Inkscape (http://www.inkscape.org/) -->

<svg
   xmlns:dc="http://purl.org/dc/elements/1.1/"
   xmlns:cc="http://creativecommons.org/ns#"
   xmlns:rdf="http://www.w3.org/1999/02/22-rdf-syntax-ns#"
   xmlns:svg="http://www.w3.org/2000/svg"
   xmlns="http://www.w3.org/2000/svg"
   xmlns:sodipodi="http://sodipodi.sourceforge.net/DTD/sodipodi-0.dtd"
   xmlns:inkscape="http://www.inkscape.org/namespaces/inkscape"
   version="1.1"
   id="svg2"
   xml:space="preserve"
   width="33.785198"
   height="27.444799"
   viewBox="0 0 33.785198 27.444799"
   sodipodi:docname="tw.svg"
   inkscape:version="0.92.1 r15371"><metadata
     id="metadata8"><rdf:RDF><cc:Work
         rdf:about=""><dc:format>image/svg+xml</dc:format><dc:type
           rdf:resource="http://purl.org/dc/dcmitype/StillImage" /><dc:title></dc:title></cc:Work></rdf:RDF></metadata><defs
     id="defs6"><clipPath
       clipPathUnits="userSpaceOnUse"
       id="clipPath18"><path
         d="M 0,0 H 25.339 V 20.584 H 0 Z"
         id="path16"
         inkscape:connector-curvature="0" /></clipPath></defs><sodipodi:namedview
     pagecolor="#ffffff"
     bordercolor="#666666"
     borderopacity="1"
     objecttolerance="10"
     gridtolerance="10"
     guidetolerance="10"
     inkscape:pageopacity="0"
     inkscape:pageshadow="2"
     inkscape:window-width="1920"
     inkscape:window-height="1027"
     id="namedview4"
     showgrid="false"
     inkscape:zoom="8.5990791"
     inkscape:cx="2.4143045"
     inkscape:cy="13.7224"
     inkscape:window-x="-8"
     inkscape:window-y="-8"
     inkscape:window-maximized="1"
     inkscape:current-layer="g10" /><g
     id="g10"
     inkscape:groupmode="layer"
     inkscape:label="Vector Smart Object2"
     transform="matrix(1.3333333,0,0,-1.3333333,0,27.4448)"><g
       id="g12"><g
         id="g14"
         clip-path="url(#clipPath18)"><g
           id="g20"
           transform="translate(25.3389,18.1501)"><path
             d="m 0,0 c -0.928,-0.412 -1.933,-0.696 -2.985,-0.821 1.075,0.643 1.895,1.662 2.289,2.879 -1.005,-0.596 -2.119,-1.031 -3.309,-1.262 -0.943,1.005 -2.297,1.637 -3.789,1.637 -2.869,0 -5.196,-2.324 -5.196,-5.195 0,-0.409 0.046,-0.805 0.133,-1.183 -4.324,0.217 -8.151,2.283 -10.718,5.429 -0.449,-0.766 -0.705,-1.662 -0.705,-2.614 0,-1.802 0.92,-3.394 2.313,-4.321 -0.852,0.022 -1.648,0.261 -2.35,0.648 v -0.064 c 0,-2.519 1.793,-4.622 4.166,-5.1 -0.434,-0.117 -0.896,-0.179 -1.367,-0.179 -0.334,0 -0.657,0.031 -0.982,0.092 0.665,-2.063 2.581,-3.563 4.854,-3.611 -1.779,-1.392 -4.021,-2.219 -6.455,-2.219 -0.418,0 -0.828,0.022 -1.238,0.07 2.305,-1.476 5.034,-2.336 7.971,-2.336 9.558,0 14.785,7.921 14.785,14.787 l -0.015,0.671 C -1.577,-1.957 -0.696,-1.044 0,0"
             style="fill:#f5f3d1;fill-opacity:1;fill-rule:nonzero;stroke:none"
             id="path22"
             inkscape:connector-curvature="0" /></g></g></g></g></svg>