<?xml version="1.0" encoding="UTF-8" standalone="no"?>
<!-- Created with Inkscape (http://www.inkscape.org/) -->

<svg
   xmlns:dc="http://purl.org/dc/elements/1.1/"
   xmlns:cc="http://creativecommons.org/ns#"
   xmlns:rdf="http://www.w3.org/1999/02/22-rdf-syntax-ns#"
   xmlns:svg="http://www.w3.org/2000/svg"
   xmlns="http://www.w3.org/2000/svg"
   xmlns:sodipodi="http://sodipodi.sourceforge.net/DTD/sodipodi-0.dtd"
   xmlns:inkscape="http://www.inkscape.org/namespaces/inkscape"
   version="1.1"
   id="svg2"
   xml:space="preserve"
   width="38.052666"
   height="23.7712"
   viewBox="0 0 38.052666 23.7712"
   sodipodi:docname="vk.svg"
   inkscape:version="0.92.1 r15371"><metadata
     id="metadata8"><rdf:RDF><cc:Work
         rdf:about=""><dc:format>image/svg+xml</dc:format><dc:type
           rdf:resource="http://purl.org/dc/dcmitype/StillImage" /><dc:title></dc:title></cc:Work></rdf:RDF></metadata><defs
     id="defs6"><clipPath
       clipPathUnits="userSpaceOnUse"
       id="clipPath18"><path
         d="M 0,0 H 28.539 V 17.828 H 0 Z"
         id="path16"
         inkscape:connector-curvature="0" /></clipPath></defs><sodipodi:namedview
     pagecolor="#ffffff"
     bordercolor="#666666"
     borderopacity="1"
     objecttolerance="10"
     gridtolerance="10"
     guidetolerance="10"
     inkscape:pageopacity="0"
     inkscape:pageshadow="2"
     inkscape:window-width="1920"
     inkscape:window-height="1027"
     id="namedview4"
     showgrid="false"
     inkscape:zoom="9.92798"
     inkscape:cx="6.4860175"
     inkscape:cy="11.8856"
     inkscape:window-x="-8"
     inkscape:window-y="-8"
     inkscape:window-maximized="1"
     inkscape:current-layer="g10" /><g
     id="g10"
     inkscape:groupmode="layer"
     inkscape:label="Vector Smart Object3"
     transform="matrix(1.3333333,0,0,-1.3333333,0,23.7712)"><g
       id="g12"><g
         id="g14"
         clip-path="url(#clipPath18)"><g
           id="g20"
           transform="translate(25.4532,5.4982)"><path
             d="M 0,0 C 2.28,-2.322 2.755,-3.454 2.832,-3.594 3.776,-5.312 1.784,-5.478 1.784,-5.478 l -3.81,0.003 c 0,0 -0.822,-0.207 -1.896,0.605 -1.426,1.07 -2.772,3.864 -3.819,3.494 -1.064,-0.369 -1.031,-2.904 -1.031,-2.904 0,0 0.01,-0.535 -0.233,-0.822 -0.261,-0.31 -0.779,-0.373 -0.779,-0.373 h -1.706 c 0,0 -3.764,-0.221 -7.08,3.564 -3.613,4.129 -6.806,12.377 -6.806,12.377 0,0 -0.184,0.537 0.016,0.797 0.223,0.293 0.837,0.312 0.837,0.312 h 4.079 c 0,0 0.382,-0.07 0.659,-0.293 0.227,-0.176 0.355,-0.519 0.355,-0.519 0,0 0.657,-1.865 1.531,-3.517 1.702,-3.229 2.495,-3.933 3.073,-3.59 0.845,0.504 0.591,4.564 0.591,4.564 0,0 0.014,1.471 -0.424,2.13 -0.342,0.506 -0.985,0.659 -1.266,0.7 -0.231,0.027 0.145,0.612 0.636,0.876 0.732,0.396 2.027,0.419 3.561,0.399 1.192,-0.013 1.535,-0.093 2.002,-0.217 1.406,-0.372 0.931,-1.81 0.931,-5.257 0,-1.107 -0.186,-2.656 0.543,-3.172 0.312,-0.223 1.077,-0.033 2.987,3.525 0.907,1.686 1.588,3.706 1.588,3.706 0,0 0.147,0.392 0.376,0.543 0.236,0.155 0.554,0.122 0.554,0.122 l 4.3,-0.006 c 0,0 1.281,0.113 1.491,-0.523 C 3.261,10.373 2.561,8.809 0.809,6.25 -2.07,2.041 -2.392,2.435 0,0"
             style="fill:#f5f3d1;fill-opacity:1;fill-rule:nonzero;stroke:none"
             id="path22"
             inkscape:connector-curvature="0" /></g></g></g></g></svg>