<?xml version="1.0" encoding="UTF-8" standalone="no"?>
<!-- Created with Inkscape (http://www.inkscape.org/) -->

<svg
   xmlns:dc="http://purl.org/dc/elements/1.1/"
   xmlns:cc="http://creativecommons.org/ns#"
   xmlns:rdf="http://www.w3.org/1999/02/22-rdf-syntax-ns#"
   xmlns:svg="http://www.w3.org/2000/svg"
   xmlns="http://www.w3.org/2000/svg"
   xmlns:sodipodi="http://sodipodi.sourceforge.net/DTD/sodipodi-0.dtd"
   xmlns:inkscape="http://www.inkscape.org/namespaces/inkscape"
   version="1.1"
   id="svg2"
   xml:space="preserve"
   width="38.728535"
   height="27.691732"
   viewBox="0 0 38.728535 27.691732"
   sodipodi:docname="yt.svg"
   inkscape:version="0.92.1 r15371"><metadata
     id="metadata8"><rdf:RDF><cc:Work
         rdf:about=""><dc:format>image/svg+xml</dc:format><dc:type
           rdf:resource="http://purl.org/dc/dcmitype/StillImage" /><dc:title></dc:title></cc:Work></rdf:RDF></metadata><defs
     id="defs6"><clipPath
       clipPathUnits="userSpaceOnUse"
       id="clipPath18"><path
         d="M 0,0 H 29.046 V 20.769 H 0 Z"
         id="path16"
         inkscape:connector-curvature="0" /></clipPath></defs><sodipodi:namedview
     pagecolor="#ffffff"
     bordercolor="#666666"
     borderopacity="1"
     objecttolerance="10"
     gridtolerance="10"
     guidetolerance="10"
     inkscape:pageopacity="0"
     inkscape:pageshadow="2"
     inkscape:window-width="1920"
     inkscape:window-height="1027"
     id="namedview4"
     showgrid="false"
     inkscape:zoom="8.5223993"
     inkscape:cx="4.7557051"
     inkscape:cy="13.845866"
     inkscape:window-x="-8"
     inkscape:window-y="-8"
     inkscape:window-maximized="1"
     inkscape:current-layer="g10" /><g
     id="g10"
     inkscape:groupmode="layer"
     inkscape:label="Vector Smart Object4"
     transform="matrix(1.3333333,0,0,-1.3333333,0,27.691733)"><g
       id="g12"><g
         id="g14"
         clip-path="url(#clipPath18)"><g
           id="g20"
           transform="translate(28.582,17.0623)"><path
             d="m 0,0 c -0.222,1.627 -1.328,2.877 -2.874,3.151 -0.708,0.125 -1.44,0.129 -2.161,0.161 -3.035,0.135 -6.071,0.259 -9.244,0.394 -3.423,-0.154 -6.978,-0.302 -10.532,-0.48 -1.642,-0.083 -3.008,-1.348 -3.264,-2.977 -0.29,-1.841 -0.431,-3.696 -0.486,-5.557 -0.081,-2.754 0.072,-5.496 0.494,-8.218 0.255,-1.648 1.686,-2.99 3.233,-3.077 2.523,-0.142 5.046,-0.293 7.57,-0.396 4.256,-0.174 8.504,0.039 12.751,0.296 0.529,0.031 1.066,0.034 1.584,0.13 1.435,0.265 2.648,1.58 2.882,3.082 0.313,2.014 0.464,4.042 0.504,6.078 C 0.504,-4.93 0.334,-2.459 0,0 m -17.346,-10.785 v 8.431 c 2.615,-1.403 5.206,-2.794 7.854,-4.214 -2.632,-1.413 -5.221,-2.803 -7.854,-4.217"
             style="fill:#f5f3d1;fill-opacity:1;fill-rule:nonzero;stroke:none"
             id="path22"
             inkscape:connector-curvature="0" /></g></g></g></g></svg>