<?xml version="1.0" encoding="UTF-8" standalone="no"?>
<!-- Created with Inkscape (http://www.inkscape.org/) -->

<svg
   xmlns:dc="http://purl.org/dc/elements/1.1/"
   xmlns:cc="http://creativecommons.org/ns#"
   xmlns:rdf="http://www.w3.org/1999/02/22-rdf-syntax-ns#"
   xmlns:svg="http://www.w3.org/2000/svg"
   xmlns="http://www.w3.org/2000/svg"
   xmlns:sodipodi="http://sodipodi.sourceforge.net/DTD/sodipodi-0.dtd"
   xmlns:inkscape="http://www.inkscape.org/namespaces/inkscape"
   version="1.1"
   id="svg2"
   xml:space="preserve"
   width="360"
   height="360"
   viewBox="0 0 360 360"
   sodipodi:docname="5_reasons.svg"
   inkscape:version="0.92.1 r15371"><metadata
     id="metadata8"><rdf:RDF><cc:Work
         rdf:about=""><dc:format>image/svg+xml</dc:format><dc:type
           rdf:resource="http://purl.org/dc/dcmitype/StillImage" /><dc:title></dc:title></cc:Work></rdf:RDF></metadata><defs
     id="defs6"><inkscape:perspective
       sodipodi:type="inkscape:persp3d"
       inkscape:vp_x="128.13559 : 148.72881 : 1"
       inkscape:vp_y="0 : 1000 : 0"
       inkscape:vp_z="359.23729 : 176.94915 : 1"
       inkscape:persp3d-origin="180 : 120 : 1"
       id="perspective4701" /><clipPath
       clipPathUnits="userSpaceOnUse"
       id="clipPath18"><path
         d="M 0,0 H 270 V 270 H 0 Z"
         id="path16"
         inkscape:connector-curvature="0" /></clipPath><clipPath
       clipPathUnits="userSpaceOnUse"
       id="clipPath178"><path
         d="M 0,0 H 270 V 270 H 0 Z"
         id="path176"
         inkscape:connector-curvature="0" /></clipPath><clipPath
       clipPathUnits="userSpaceOnUse"
       id="clipPath190"><path
         d="M 92.7123,186.644 H 179.589 V 90.7388 H 92.7123 Z"
         id="path188"
         inkscape:connector-curvature="0" /></clipPath></defs><sodipodi:namedview
     pagecolor="#ffffff"
     bordercolor="#666666"
     borderopacity="1"
     objecttolerance="10"
     gridtolerance="10"
     guidetolerance="10"
     inkscape:pageopacity="0"
     inkscape:pageshadow="2"
     inkscape:window-width="1920"
     inkscape:window-height="1027"
     id="namedview4"
     showgrid="false"
     inkscape:zoom="1.3111111"
     inkscape:cx="208.1302"
     inkscape:cy="179.72287"
     inkscape:window-x="-8"
     inkscape:window-y="-8"
     inkscape:window-maximized="1"
     inkscape:current-layer="g10" /><g
     id="g10"
     inkscape:groupmode="layer"
     inkscape:label="Vector Smart Object"
     transform="matrix(1.3333333,0,0,-1.3333333,0,360)"><g
       id="g12"><g
         id="g14"
         clip-path="url(#clipPath18)"><g
           id="g20"
           transform="translate(135)"><path
             d="M 0,0 C 74.558,0 135,60.442 135,135 135,209.558 74.558,270 0,270 -74.558,270 -135,209.558 -135,135 -135,60.442 -74.558,0 0,0"
             style="fill:#bb0023;fill-opacity:1;fill-rule:nonzero;stroke:none"
             id="path22"
             inkscape:connector-curvature="0" /></g><g
           id="g24"
           transform="translate(135,43.7029)"><path
             d="m 0,0 c 50.422,0 91.297,40.875 91.297,91.297 0,50.422 -40.875,91.297 -91.297,91.297 -50.422,0 -91.297,-40.875 -91.297,-91.297 C -91.297,40.875 -50.422,0 0,0"
             style="fill:#bb0023;fill-opacity:1;fill-rule:nonzero;stroke:none"
             id="path26"
             inkscape:connector-curvature="0" /></g><g
           id="g28"
           transform="translate(139.9435,43.8344)"><path
             d="M 0,0 C 47.307,2.524 85.054,41.062 86.321,88.693"
             style="fill:none;stroke:#f5f3d1;stroke-width:2.47600007;stroke-linecap:round;stroke-linejoin:round;stroke-miterlimit:4;stroke-dasharray:0, 4.946;stroke-dashoffset:0;stroke-opacity:1"
             id="path30"
             inkscape:connector-curvature="0" /></g><g
           id="g32"
           transform="translate(226.1655,139.9435)"><path
             d="M 0,0 C -2.524,47.307 -41.062,85.054 -88.693,86.321"
             style="fill:none;stroke:#f5f3d1;stroke-width:2.47600007;stroke-linecap:round;stroke-linejoin:round;stroke-miterlimit:4;stroke-dasharray:0, 4.946;stroke-dashoffset:0;stroke-opacity:1"
             id="path34"
             inkscape:connector-curvature="0" /></g><g
           id="g36"
           transform="translate(130.0565,226.1655)"><path
             d="M 0,0 C -47.307,-2.524 -85.054,-41.062 -86.321,-88.693"
             style="fill:none;stroke:#f5f3d1;stroke-width:2.47600007;stroke-linecap:round;stroke-linejoin:round;stroke-miterlimit:4;stroke-dasharray:0, 4.946;stroke-dashoffset:0;stroke-opacity:1"
             id="path38"
             inkscape:connector-curvature="0" /></g><g
           id="g40"
           transform="translate(43.8344,130.0565)"><path
             d="M 0,0 C 2.524,-47.307 41.062,-85.054 88.693,-86.321"
             style="fill:none;stroke:#f5f3d1;stroke-width:2.47600007;stroke-linecap:round;stroke-linejoin:round;stroke-miterlimit:4;stroke-dasharray:0, 4.946;stroke-dashoffset:0;stroke-opacity:1"
             id="path42"
             inkscape:connector-curvature="0" /></g><g
           id="g44"
           transform="translate(226.2971,135)"><path
             d="m 0,0 v 0 m -91.297,91.297 v 0 M -182.594,0 v 0 m 91.297,-91.297 v 0"
             style="fill:none;stroke:#f5f3d1;stroke-width:2.47600007;stroke-linecap:round;stroke-linejoin:round;stroke-miterlimit:4;stroke-dasharray:none;stroke-opacity:1"
             id="path46"
             inkscape:connector-curvature="0" /></g></g></g><g
       aria-label="П"
       transform="matrix(-0.97711482,0.21271257,0.21271257,0.97711482,121.4178,31.2077)"
       style="font-variant:normal;font-weight:normal;font-stretch:normal;font-size:25.25332642px;font-family:'Gotham Pro';-inkscape-font-specification:GothamPro;writing-mode:lr-tb;fill:#f5f3d1;fill-opacity:1;fill-rule:nonzero;stroke:none"
       id="text50"><path
         d="m 2.6263459,0 h 1.313173 V -16.465169 H 15.000476 V 0 h 1.313173 V -17.677328 H 2.6263459 Z"
         style=""
         id="path4788" /></g><g
       aria-label="Р"
       transform="matrix(-0.92571396,0.37822436,0.37822436,0.92571396,102.4558,35.6141)"
       style="font-variant:normal;font-weight:normal;font-stretch:normal;font-size:25.25326538px;font-family:'Gotham Pro';-inkscape-font-specification:GothamPro;writing-mode:lr-tb;fill:#f5f3d1;fill-opacity:1;fill-rule:nonzero;stroke:none"
       id="text54"><path
         d="m 2.6263396,0 h 1.3131698 v -6.5911023 h 4.7728672 c 3.6869764,0 6.8941414,-1.9192481 6.8941414,-5.6314777 0,-3.459698 -2.676846,-5.454706 -6.565849,-5.454706 H 2.6263396 Z m 1.3131698,-7.803259 v -8.66187 h 5.0001465 c 3.1819111,0 5.3536921,1.464689 5.3536921,4.267802 0,2.676846 -2.222287,4.394068 -5.5052116,4.394068 z"
         style=""
         id="path4785" /></g><g
       aria-label="И"
       transform="matrix(-0.83529462,0.5498026,0.5498026,0.83529462,86.3045,42.1903)"
       style="font-variant:normal;font-weight:normal;font-stretch:normal;font-size:25.25324631px;font-family:'Gotham Pro';-inkscape-font-specification:GothamPro;writing-mode:lr-tb;fill:#f5f3d1;fill-opacity:1;fill-rule:nonzero;stroke:none"
       id="text58"><path
         d="M 2.6263376,0 H 3.9395064 L 15.40448,-15.783279 V 0 h 1.313169 V -17.677272 H 15.429733 L 3.9395064,-1.8939935 V -17.677272 H 2.6263376 Z"
         style="line-height:1.25"
         id="path4782" /></g><g
       aria-label="Ч"
       transform="matrix(-0.73194035,0.68136872,0.68136872,0.73194035,69.7052,53.3056)"
       style="font-variant:normal;font-weight:normal;font-stretch:normal;font-size:25.25328827px;font-family:'Gotham Pro';-inkscape-font-specification:GothamPro;writing-mode:lr-tb;fill:#f5f3d1;fill-opacity:1;fill-rule:nonzero;stroke:none"
       id="text62"><path
         d="m 13.485256,0 h 1.313171 v -17.677302 h -1.313171 v 8.5608649 c -1.666717,0.959625 -3.9647663,1.8939967 -5.9345228,1.8939967 -2.6515953,0 -4.2172991,-1.4899441 -4.2172991,-3.7627396 v -6.692122 h -1.313171 v 6.565855 c 0,3.3586875 2.197036,5.0759111 5.60623,5.0759111 1.9697564,0 4.6213519,-1.1616513 5.8587629,-1.84349 z"
         style=""
         id="path4779" /></g><g
       aria-label="И"
       transform="matrix(-0.58926178,0.80794217,0.80794217,0.58926178,56.4765,65.6767)"
       style="font-variant:normal;font-weight:normal;font-stretch:normal;font-size:25.25329208px;font-family:'Gotham Pro';-inkscape-font-specification:GothamPro;writing-mode:lr-tb;fill:#f5f3d1;fill-opacity:1;fill-rule:nonzero;stroke:none"
       id="text66"><path
         d="M 2.6263424,0 H 3.9395136 L 15.404508,-15.783308 V 0 h 1.313171 V -17.677304 H 15.429761 L 3.9395136,-1.8939969 V -17.677304 H 2.6263424 Z"
         style=""
         id="path4731" /></g><g
       aria-label="Н"
       transform="matrix(-0.42306213,0.90610067,0.90610067,0.42306213,44.6961,81.8517)"
       style="font-variant:normal;font-weight:normal;font-stretch:normal;font-size:25.25326538px;font-family:'Gotham Pro';-inkscape-font-specification:GothamPro;writing-mode:lr-tb;fill:#f5f3d1;fill-opacity:1;fill-rule:nonzero;stroke:none"
       id="text70"><path
         d="M 2.6263396,0 H 3.9395094 V -8.283071 H 15.252972 V 0 h 1.31317 v -17.677286 h -1.31317 v 8.1820582 H 3.9395094 V -17.677286 H 2.6263396 Z"
         style=""
         id="path4734" /></g><g
       aria-label="П"
       transform="matrix(-0.16345175,0.98655133,0.98655133,0.16345175,33.9201,106.981)"
       style="font-variant:normal;font-weight:normal;font-stretch:normal;font-size:25.25332451px;font-family:'Gotham Pro';-inkscape-font-specification:GothamPro;writing-mode:lr-tb;fill:#f5f3d1;fill-opacity:1;fill-rule:nonzero;stroke:none"
       id="text74"><path
         d="M 2.6263457,0 H 3.9395186 V -16.465168 H 15.000475 V 0 h 1.313173 V -17.677327 H 2.6263457 Z"
         style=""
         id="path4737" /></g><g
       aria-label="О"
       transform="matrix(0.0126518,0.99991996,0.99991996,-0.0126518,30.5964,126.2007)"
       style="font-variant:normal;font-weight:normal;font-stretch:normal;font-size:25.25332069px;font-family:'Gotham Pro';-inkscape-font-specification:GothamPro;writing-mode:lr-tb;fill:#f5f3d1;fill-opacity:1;fill-rule:nonzero;stroke:none"
       id="text78"><path
         d="m 10.707408,0.30303985 c 5.353704,0 8.914422,-4.31831785 8.914422,-9.14170205 0,-4.8738908 -3.510211,-9.1417018 -8.863915,-9.1417018 -5.3537044,0 -8.9144226,4.318318 -8.9144226,9.1417018 0,4.8738909 3.5102116,9.14170205 8.8639156,9.14170205 z m 0.05051,-1.18690607 c -4.3688249,0 -7.5507433,-3.58597158 -7.5507433,-7.95479598 0,-4.4193308 3.1314118,-7.9547958 7.5002363,-7.9547958 4.368824,0 7.550743,3.585971 7.550743,7.9547958 0,4.4193311 -3.131412,7.95479598 -7.500236,7.95479598 z"
         style=""
         id="path4740" /></g><g
       aria-label="С"
       transform="matrix(0.21271257,0.97711482,0.97711482,-0.21271257,31.1268,148.2108)"
       style="font-variant:normal;font-weight:normal;font-stretch:normal;font-size:25.25332642px;font-family:'Gotham Pro';-inkscape-font-specification:GothamPro;writing-mode:lr-tb;fill:#f5f3d1;fill-opacity:1;fill-rule:nonzero;stroke:none"
       id="text82"><path
         d="m 10.63165,0.30303992 c 3.131413,0 5.151679,-1.237413 7.020425,-3.08090582 L 16.768209,-3.636479 c -1.792986,1.7677328 -3.535466,2.75261258 -6.086052,2.75261258 -4.2173054,0 -7.4749845,-3.48495908 -7.4749845,-7.95479778 0,-4.4950918 3.2071724,-7.9547978 7.4497315,-7.9547978 2.651599,0 4.419332,1.111146 5.959785,2.601093 l 0.858613,-0.883867 c -1.81824,-1.666719 -3.636479,-2.904132 -6.793145,-2.904132 -5.1011719,0 -8.8386642,4.141545 -8.8386642,9.1417038 0,5.1264252 3.7374923,9.14170412 8.7881572,9.14170412 z"
         style=""
         id="path4743" /></g><g
       aria-label="М"
       transform="matrix(0.40079453,0.91616797,0.91616797,-0.40079453,35.1439,167.0012)"
       style="font-variant:normal;font-weight:normal;font-stretch:normal;font-size:25.25333786px;font-family:'Gotham Pro';-inkscape-font-specification:GothamPro;writing-mode:lr-tb;fill:#f5f3d1;fill-opacity:1;fill-rule:nonzero;stroke:none"
       id="text86"><path
         d="M 2.6263471,0 H 3.889014 v -15.354029 l 6.995175,10.1770947 h 0.101013 L 17.980377,-15.354029 V 0 H 19.29355 V -17.677337 H 18.056137 L 10.959949,-7.2224546 3.8637607,-17.677337 H 2.6263471 Z"
         style=""
         id="path4746" /></g><g
       aria-label="О"
       transform="matrix(0.58926178,0.80794217,0.80794217,-0.58926178,44.2604,187.5737)"
       style="font-variant:normal;font-weight:normal;font-stretch:normal;font-size:25.25329208px;font-family:'Gotham Pro';-inkscape-font-specification:GothamPro;writing-mode:lr-tb;fill:#f5f3d1;fill-opacity:1;fill-rule:nonzero;stroke:none"
       id="text90"><path
         d="m 10.707396,0.30303951 c 5.353698,0 8.914412,-4.31831291 8.914412,-9.14169171 0,-4.8738858 -3.510208,-9.1416918 -8.863906,-9.1416918 -5.3536975,0 -8.9144117,4.318313 -8.9144117,9.1416918 0,4.8738853 3.5102076,9.14169171 8.8639057,9.14169171 z m 0.05051,-1.18690473 c -4.3688191,0 -7.5507339,-3.58596748 -7.5507339,-7.95478698 0,-4.4193258 3.1314082,-7.9547868 7.5002279,-7.9547868 4.368819,0 7.550734,3.585967 7.550734,7.9547868 0,4.4193261 -3.131408,7.95478698 -7.500228,7.95478698 z"
         style=""
         id="path4821" /></g><g
       aria-label="Т"
       transform="matrix(0.71548711,0.69862594,0.69862594,-0.71548711,56.62,204.2207)"
       style="font-variant:normal;font-weight:normal;font-stretch:normal;font-size:25.25328445px;font-family:'Gotham Pro';-inkscape-font-specification:GothamPro;writing-mode:lr-tb;fill:#f5f3d1;fill-opacity:1;fill-rule:nonzero;stroke:none"
       id="text94"><path
         d="m 7.5254788,0 h 1.3131708 v -16.465141 h 6.1618014 v -1.212158 H 1.3636774 v 1.212158 h 6.1618014 z"
         style=""
         id="path4818" /></g><g
       aria-label="Р"
       transform="matrix(0.82184163,0.56971601,0.56971601,-0.82184163,68.7594,215.9837)"
       style="font-variant:normal;font-weight:normal;font-stretch:normal;font-size:25.25328445px;font-family:'Gotham Pro';-inkscape-font-specification:GothamPro;writing-mode:lr-tb;fill:#f5f3d1;fill-opacity:1;fill-rule:nonzero;stroke:none"
       id="text98"><path
         d="m 2.6263416,0 h 1.3131708 v -6.5911072 h 4.7728707 c 3.6869799,0 6.8941469,-1.9192497 6.8941469,-5.6314828 0,-3.4597 -2.676848,-5.454709 -6.5658542,-5.454709 H 2.6263416 Z m 1.3131708,-7.8032649 v -8.6618761 h 5.0001503 c 3.1819143,0 5.3536963,1.46469 5.3536963,4.267805 0,2.6768478 -2.222289,4.3940711 -5.505216,4.3940711 z"
         style=""
         id="path4815" /></g><g
       aria-label="Е"
       transform="matrix(0.90610067,0.42306213,0.42306213,-0.90610067,83.0865,225.8804)"
       style="font-variant:normal;font-weight:normal;font-stretch:normal;font-size:25.25326538px;font-family:'Gotham Pro';-inkscape-font-specification:GothamPro;writing-mode:lr-tb;fill:#f5f3d1;fill-opacity:1;fill-rule:nonzero;stroke:none"
       id="text102"><path
         d="M 2.6263396,0 H 15.328732 V -1.2121567 H 3.9395094 V -8.3083243 H 14.066069 V -9.520481 H 3.9395094 v -6.944648 H 15.202466 v -1.212157 H 2.6263396 Z"
         style=""
         id="path4812" /></g><g
       aria-label="Т"
       transform="matrix(0.96528226,0.26120902,0.26120902,-0.96528226,98.9054,233.2946)"
       style="font-variant:normal;font-weight:normal;font-stretch:normal;font-size:25.25333786px;font-family:'Gotham Pro';-inkscape-font-specification:GothamPro;writing-mode:lr-tb;fill:#f5f3d1;fill-opacity:1;fill-rule:nonzero;stroke:none"
       id="text106"><path
         d="m 7.5254947,0 h 1.3131736 v -16.465176 h 6.1618147 v -1.212161 H 1.3636802 v 1.212161 h 6.1618145 z"
         style=""
         id="path4809" /></g><g
       aria-label="Ь"
       transform="matrix(0.99352962,0.11357328,0.11357328,-0.99352962,115.2157,237.7112)"
       style="font-style:normal;font-variant:normal;font-weight:normal;font-stretch:normal;font-size:25.25329781px;font-family:'Gotham Pro';-inkscape-font-specification:'Gotham Pro';writing-mode:lr-tb;fill:#f5f3d1;fill-opacity:1;fill-rule:nonzero;stroke:none"
       id="text110"><path
         d="m 2.626343,0 h 6.6668706 c 3.7627414,0 6.3133244,-2.0960237 6.3133244,-5.5052189 0,-3.6364749 -3.080902,-5.0759131 -6.4395909,-5.0759131 H 3.9395145 v -7.096176 H 2.626343 Z m 1.3131715,-1.2121583 v -8.1568152 h 4.9748996 c 3.2829289,0 5.3284459,1.2879182 5.3284459,3.9142612 0,2.8536226 -1.995011,4.242554 -5.1769261,4.242554 z"
         style="font-style:normal;font-variant:normal;font-weight:normal;font-stretch:normal;font-family:'Gotham Pro';-inkscape-font-specification:'Gotham Pro'"
         id="path4806" /></g><g
       aria-label="Д"
       transform="matrix(0.99035123,-0.13858011,-0.13858011,-0.99035123,140.2326,239.5808)"
       style="font-style:normal;font-variant:normal;font-weight:normal;font-stretch:normal;font-size:25.25326347px;font-family:'Gotham Pro';-inkscape-font-specification:'Gotham Pro';writing-mode:lr-tb;fill:#f5f3d1;fill-opacity:1;fill-rule:nonzero;stroke:none"
       id="text114"><path
         d="M 0.25253263,4.0405222 H 1.3636762 L 1.6162089,0 H 16.843927 v 4.0405222 h 1.111143 l 0.252533,-5.2526788 h -2.39906 V -17.677284 H 4.9748929 v 3.737483 c 0,5.505211 -1.0101305,10.1770647 -2.8283655,12.7276444 H 0.25253263 Z M 3.6617232,-1.2121566 C 5.3031853,-3.6112167 6.2628093,-8.2578172 6.2628093,-12.980177 v -3.484951 h 8.2325637 v 15.2529714 z"
         style=""
         id="path4803" /></g><g
       aria-label="О"
       transform="matrix(0.94320521,-0.33221066,-0.33221066,-0.94320521,159.6673,236.9058)"
       style="font-style:normal;font-variant:normal;font-weight:normal;font-stretch:normal;font-size:25.25325394px;font-family:'Gotham Pro';-inkscape-font-specification:'Gotham Pro';writing-mode:lr-tb;fill:#f5f3d1;fill-opacity:1;fill-rule:nonzero;stroke:none"
       id="text118"><path
         d="m 10.70738,0.30303905 c 5.35369,0 8.914398,-4.31830645 8.914398,-9.14167795 0,-4.8738781 -3.510202,-9.1416781 -8.863892,-9.1416781 -5.3536897,0 -8.9143985,4.318307 -8.9143985,9.1416781 0,4.873878 3.5102023,9.14167795 8.8638925,9.14167795 z m 0.05051,-1.18690294 c -4.3688128,0 -7.5507228,-3.58596201 -7.5507228,-7.95477501 0,-4.4193191 3.1314035,-7.9547751 7.5002168,-7.9547751 4.368813,0 7.550723,3.585962 7.550723,7.9547751 0,4.4193195 -3.131404,7.95477501 -7.500217,7.95477501 z"
         style="font-style:normal;font-variant:normal;font-weight:normal;font-stretch:normal;font-family:'Gotham Pro';-inkscape-font-specification:'Gotham Pro'"
         id="path4800" /></g><g
       aria-label="В"
       transform="matrix(0.82184163,-0.56971601,-0.56971601,-0.82184163,187.0651,225.8104)"
       style="font-style:normal;font-variant:normal;font-weight:normal;font-stretch:normal;font-size:25.25328445px;font-family:'Gotham Pro';-inkscape-font-specification:'Gotham Pro';writing-mode:lr-tb;fill:#f5f3d1;fill-opacity:1;fill-rule:nonzero;stroke:none"
       id="text122"><path
         d="M 2.6263416,0 H 10.30334 c 3.813246,0 6.338574,-1.868743 6.338574,-4.8233773 0,-2.5000752 -1.868743,-3.7122328 -3.990018,-4.2678051 1.439437,-0.5808255 3.00514,-1.7929836 3.00514,-4.1920456 0,-2.676848 -2.272795,-4.394071 -5.7324952,-4.394071 H 2.6263416 Z m 1.3131708,-1.2121577 v -7.0961729 h 5.9850284 c 3.4849532,0 5.3789492,1.2626642 5.3789492,3.4344467 0,2.2727956 -1.919249,3.6617262 -4.949643,3.6617262 z m 0,-8.3083305 v -6.9446528 h 5.9597751 c 2.8283675,0 4.4193245,1.31317 4.4193245,3.257673 0,2.399062 -1.893996,3.6869798 -4.5455909,3.6869798 z"
         style="font-style:normal;font-variant:normal;font-weight:normal;font-stretch:normal;font-family:'Gotham Pro';-inkscape-font-specification:'Gotham Pro'"
         id="path4797" /></g><g
       aria-label="С"
       transform="matrix(0.69862594,-0.71548711,-0.71548711,-0.69862594,202.526,215.1156)"
       style="font-style:normal;font-variant:normal;font-weight:normal;font-stretch:normal;font-size:25.25328445px;font-family:'Gotham Pro';-inkscape-font-specification:'Gotham Pro';writing-mode:lr-tb;fill:#f5f3d1;fill-opacity:1;fill-rule:nonzero;stroke:none"
       id="text126"><path
         d="m 10.631633,0.30303941 c 3.131407,0 5.15167,-1.23741093 7.020413,-3.08090071 L 16.768181,-3.636473 c -1.792983,1.76773 -3.53546,2.75260804 -6.086042,2.75260804 -4.2172982,0 -7.4749719,-3.48495324 -7.4749719,-7.95478464 0,-4.4950844 3.2071672,-7.9547844 7.4497189,-7.9547844 2.651595,0 4.419325,1.111144 5.959775,2.601088 l 0.858612,-0.883865 c -1.818237,-1.666717 -3.636473,-2.904128 -6.793134,-2.904128 -5.1011631,0 -8.8386492,4.141539 -8.8386492,9.1416894 0,5.1264168 3.7374861,9.14168901 8.7881432,9.14168901 z"
         style="font-style:normal;font-variant:normal;font-weight:normal;font-stretch:normal;font-family:'Gotham Pro';-inkscape-font-specification:'Gotham Pro'"
         id="path4794" /></g><g
       aria-label="Т"
       transform="matrix(0.56971601,-0.82184163,-0.82184163,-0.56971601,215.8965,201.3664)"
       style="font-variant:normal;font-weight:normal;font-stretch:normal;font-size:25.25328445px;font-family:'Gotham Pro';-inkscape-font-specification:GothamPro;writing-mode:lr-tb;fill:#f5f3d1;fill-opacity:1;fill-rule:nonzero;stroke:none"
       id="text130"><path
         d="m 7.5254788,0 h 1.3131708 v -16.465141 h 6.1618014 v -1.212158 H 1.3636774 v 1.212158 h 6.1618014 z"
         style=""
         id="path4791" /></g><g
       aria-label="Р"
       transform="matrix(0.42306213,-0.90610067,-0.90610067,-0.42306213,225.6019,187.5099)"
       style="font-variant:normal;font-weight:normal;font-stretch:normal;font-size:25.25326538px;font-family:'Gotham Pro';-inkscape-font-specification:GothamPro;writing-mode:lr-tb;fill:#f5f3d1;fill-opacity:1;fill-rule:nonzero;stroke:none"
       id="text134"><path
         d="m 2.6263396,0 h 1.3131698 v -6.5911023 h 4.7728672 c 3.6869764,0 6.8941414,-1.9192481 6.8941414,-5.6314777 0,-3.459698 -2.676846,-5.454706 -6.565849,-5.454706 H 2.6263396 Z m 1.3131698,-7.803259 v -8.66187 h 5.0001465 c 3.1819111,0 5.3536921,1.464689 5.3536921,4.267802 0,2.676846 -2.222287,4.394068 -5.5052116,4.394068 z"
         style=""
         id="path4749" /></g><g
       aria-label="Е"
       transform="matrix(0.26120902,-0.96528226,-0.96528226,-0.26120902,233.1095,171.7787)"
       style="font-variant:normal;font-weight:normal;font-stretch:normal;font-size:25.25333786px;font-family:'Gotham Pro';-inkscape-font-specification:GothamPro;writing-mode:lr-tb;fill:#f5f3d1;fill-opacity:1;fill-rule:nonzero;stroke:none"
       id="text138"><path
         d="M 2.6263471,0 H 15.328776 V -1.2121602 H 3.9395207 v -7.096188 H 14.066109 V -9.5205084 H 3.9395207 V -16.465176 H 15.202509 v -1.212161 H 2.6263471 Z"
         style=""
         id="path4752" /></g><g
       aria-label="Ч"
       transform="matrix(0.11357328,-0.99352962,-0.99352962,-0.11357328,237.6938,154.9364)"
       style="font-variant:normal;font-weight:normal;font-stretch:normal;font-size:25.25329781px;font-family:'Gotham Pro';-inkscape-font-specification:GothamPro;writing-mode:lr-tb;fill:#f5f3d1;fill-opacity:1;fill-rule:nonzero;stroke:none"
       id="text142"><path
         d="m 13.485261,0 h 1.313172 v -17.677308 h -1.313172 v 8.5608675 c -1.666718,0.9596253 -3.9647677,1.8939973 -5.934525,1.8939973 -2.6515962,0 -4.2173007,-1.4899445 -4.2173007,-3.7627418 v -6.692123 H 2.0202638 v 6.565857 c 0,3.3586886 2.1970369,5.0759128 5.6062321,5.0759128 1.9697573,0 4.6213531,-1.1616517 5.8587651,-1.8434907 z"
         style=""
         id="path4755" /></g><g
       aria-label="И"
       transform="matrix(-0.06324334,-0.99799814,-0.99799814,0.06324334,239.62,136.9465)"
       style="font-variant:normal;font-weight:normal;font-stretch:normal;font-size:25.25325394px;font-family:'Gotham Pro';-inkscape-font-specification:GothamPro;writing-mode:lr-tb;fill:#f5f3d1;fill-opacity:1;fill-rule:nonzero;stroke:none"
       id="text146"><path
         d="M 2.6263384,0 H 3.9395076 L 15.404485,-15.783284 V 0 h 1.313169 V -17.677278 H 15.429738 L 3.9395076,-1.893994 V -17.677278 H 2.6263384 Z"
         style=""
         id="path4758" /></g><g
       aria-label="С"
       transform="matrix(-0.33221066,-0.94320521,-0.94320521,0.33221066,236.6295,109.5484)"
       style="font-variant:normal;font-weight:normal;font-stretch:normal;font-size:25.25325394px;font-family:'Gotham Pro';-inkscape-font-specification:GothamPro;writing-mode:lr-tb;fill:#f5f3d1;fill-opacity:1;fill-rule:nonzero;stroke:none"
       id="text150"><path
         d="m 10.63162,0.30303905 c 3.131403,0 5.151664,-1.23740945 7.020405,-3.08089695 l -0.883864,-0.8586107 c -1.792981,1.7677278 -3.535456,2.75260471 -6.086035,2.75260471 -4.217293,0 -7.4749628,-3.48494901 -7.4749628,-7.95477501 0,-4.4950791 3.2071633,-7.9547751 7.4497098,-7.9547751 2.651592,0 4.41932,1.111143 5.959768,2.601085 l 0.858611,-0.883864 c -1.818235,-1.666714 -3.636469,-2.904124 -6.793126,-2.904124 -5.1011569,0 -8.8386385,4.141534 -8.8386385,9.1416781 0,5.1264106 3.7374816,9.14167795 8.7881325,9.14167795 z"
         style=""
         id="path4761" /></g><g
       aria-label="Т"
       transform="matrix(-0.5498026,-0.83529462,-0.83529462,0.5498026,226.757,84.7051)"
       style="font-variant:normal;font-weight:normal;font-stretch:normal;font-size:25.25324631px;font-family:'Gotham Pro';-inkscape-font-specification:GothamPro;writing-mode:lr-tb;fill:#f5f3d1;fill-opacity:1;fill-rule:nonzero;stroke:none"
       id="text154"><path
         d="m 7.5254674,0 h 1.3131688 v -16.465117 h 6.1617918 v -1.212155 H 1.3636753 v 1.212155 h 6.1617921 z"
         style=""
         id="path4764" /></g><g
       aria-label="О"
       transform="matrix(-0.68136872,-0.73194035,-0.73194035,0.68136872,218.3489,71.4826)"
       style="font-variant:normal;font-weight:normal;font-stretch:normal;font-size:25.25328827px;font-family:'Gotham Pro';-inkscape-font-specification:GothamPro;writing-mode:lr-tb;fill:#f5f3d1;fill-opacity:1;fill-rule:nonzero;stroke:none"
       id="text158"><path
         d="m 10.707394,0.30303946 c 5.353697,0 8.914411,-4.31831226 8.914411,-9.14169036 0,-4.8738851 -3.510207,-9.1416901 -8.863904,-9.1416901 -5.3536973,0 -8.914411,4.318312 -8.914411,9.1416901 0,4.8738846 3.5102071,9.14169036 8.863904,9.14169036 z m 0.05051,-1.18690455 c -4.3688191,0 -7.5507334,-3.58596691 -7.5507334,-7.95478581 0,-4.4193251 3.1314078,-7.9547861 7.5002264,-7.9547861 4.368819,0 7.550733,3.585967 7.550733,7.9547861 0,4.4193255 -3.131407,7.95478581 -7.500226,7.95478581 z"
         style=""
         id="path4776" /></g><g
       aria-label="Б"
       transform="matrix(-0.80794217,-0.58926178,-0.58926178,0.80794217,203.1228,55.601)"
       style="font-variant:normal;font-weight:normal;font-stretch:normal;font-size:25.25329208px;font-family:'Gotham Pro';-inkscape-font-specification:GothamPro;writing-mode:lr-tb;fill:#f5f3d1;fill-opacity:1;fill-rule:nonzero;stroke:none"
       id="text162"><path
         d="m 2.6263424,0 h 7.4749746 c 3.889007,0 6.187056,-1.8434903 6.187056,-5.2526848 0,-3.5102076 -2.702102,-4.9496452 -6.3890825,-4.9496452 H 3.9395136 v -6.262816 H 14.949949 v -1.212158 H 2.6263424 Z m 1.3131712,-1.212158 v -7.778014 h 5.7830039 c 3.2829275,0 5.2021785,1.2374113 5.2021785,3.7374872 0,2.8536221 -1.893997,4.0405268 -5.0759121,4.0405268 z"
         style=""
         id="path4773" /></g><g
       aria-label="О"
       transform="matrix(-0.90610067,-0.42306213,-0.42306213,0.90610067,188.2205,44.7299)"
       style="font-variant:normal;font-weight:normal;font-stretch:normal;font-size:25.25326538px;font-family:'Gotham Pro';-inkscape-font-specification:GothamPro;writing-mode:lr-tb;fill:#f5f3d1;fill-opacity:1;fill-rule:nonzero;stroke:none"
       id="text166"><path
         d="m 10.707385,0.30303918 c 5.353692,0 8.914402,-4.31830838 8.914402,-9.14168208 0,-4.8738801 -3.510204,-9.1416821 -8.863896,-9.1416821 -5.3536922,0 -8.9144026,4.318308 -8.9144026,9.1416821 0,4.8738802 3.5102039,9.14168208 8.8638966,9.14168208 z m 0.05051,-1.18690347 c -4.3688149,0 -7.5507263,-3.58596371 -7.5507263,-7.95477861 0,-4.4193211 3.1314049,-7.9547781 7.5002203,-7.9547781 4.368814,0 7.550726,3.585963 7.550726,7.9547781 0,4.4193215 -3.131405,7.95477861 -7.50022,7.95477861 z"
         style=""
         id="path4770" /></g><g
       aria-label="Й"
       transform="matrix(-0.9714935,-0.23706621,-0.23706621,0.9714935,168.1447,35.7189)"
       style="font-variant:normal;font-weight:normal;font-stretch:normal;font-size:25.25328255px;font-family:'Gotham Pro';-inkscape-font-specification:GothamPro;writing-mode:lr-tb;fill:#f5f3d1;fill-opacity:1;fill-rule:nonzero;stroke:none"
       id="text170"><path
         d="M 2.6263414,0 H 3.9395121 L 15.404502,-15.783302 V 0 h 1.313171 V -17.677298 H 15.429756 L 3.9395121,-1.8939962 V -17.677298 H 2.6263414 Z m 7.0709191,-19.141988 c 1.7929835,0 3.1061535,-1.262664 3.4091935,-2.904128 l -1.035385,-0.227279 c -0.303039,1.136398 -1.060638,1.843489 -2.3738085,1.843489 -1.3131707,0 -2.0707692,-0.707091 -2.3738086,-1.843489 l -1.0353845,0.227279 c 0.3030393,1.641464 1.61621,2.904128 3.4091931,2.904128 z"
         style=""
         id="path4767" /></g><g
       id="g172"><g
         id="g174"
         clip-path="url(#clipPath178)"><g
           id="g180"
           transform="translate(134.7052,82.5204)"><path
             d="m 0,0 c 23.734,0 39.212,13.857 39.212,35.674 0,23.587 -16.068,33.316 -36.116,33.316 -5.749,0 -9.435,-0.737 -13.562,-1.769 l 1.179,17.837 h 43.929 v 19.901 h -63.388 l -2.948,-50.858 13.12,-8.697 c 4.864,2.064 10.761,3.833 17.247,3.833 10.762,0 18.28,-5.16 18.28,-14.005 0,-9.434 -6.634,-14.594 -17.248,-14.594 -9.14,0 -16.805,4.128 -24.618,11.204 L -38.623,15.479 C -28.598,5.897 -16.51,0 0,0"
             style="fill:#f5f3d1;fill-opacity:1;fill-rule:nonzero;stroke:none"
             id="path182"
             inkscape:connector-curvature="0" /></g><g
           id="g184"><g
             id="g186" /><g
             id="g198"><g
               clip-path="url(#clipPath190)"
               id="g196"
               style="opacity:0.10000598"><g
                 transform="translate(169.4374,177.4919)"
                 id="g194"><path
                   d="m 0,0 h -54.091 l -2.131,-38.689 c 0,0 51.972,13.716 51.229,-21.227 -0.832,-39.112 -52.998,-22.469 -61.58,-12.482"
                   style="fill:#f5f3d1;fill-opacity:1;fill-rule:nonzero;stroke:none"
                   id="path192"
                   inkscape:connector-curvature="0" /></g></g></g></g><g
           id="g200"
           transform="translate(164.9299,177.4919)"><path
             d="M 0,0 H -47.329"
             style="fill:none;stroke:#bb0023;stroke-width:2.3039999;stroke-linecap:round;stroke-linejoin:round;stroke-miterlimit:4;stroke-dasharray:0, 4.508;stroke-dashoffset:0;stroke-opacity:1"
             id="path202"
             inkscape:connector-curvature="0" /></g><g
           id="g204"
           transform="translate(115.0803,172.6558)"><path
             d="M 0,0 -1.732,-31.435"
             style="fill:none;stroke:#bb0023;stroke-width:2.3039999;stroke-linecap:round;stroke-linejoin:round;stroke-miterlimit:4;stroke-dasharray:0, 4.843;stroke-dashoffset:0;stroke-opacity:1"
             id="path206"
             inkscape:connector-curvature="0" /></g><g
           id="g208"
           transform="translate(117.7744,139.7947)"><path
             d="M 0,0 C 12.303,2.327 45.349,6.125 46.639,-19.886"
             style="fill:none;stroke:#bb0023;stroke-width:2.3039999;stroke-linecap:round;stroke-linejoin:round;stroke-miterlimit:4;stroke-dasharray:0, 4.666;stroke-dashoffset:0;stroke-opacity:1"
             id="path210"
             inkscape:connector-curvature="0" /></g><g
           id="g212"
           transform="translate(164.0752,112.9399)"><path
             d="M 0,0 C -4.507,-31.292 -47.878,-18.973 -59.53,-9.451"
             style="fill:none;stroke:#bb0023;stroke-width:2.3039999;stroke-linecap:round;stroke-linejoin:round;stroke-miterlimit:4;stroke-dasharray:0, 4.653;stroke-dashoffset:0;stroke-opacity:1"
             id="path214"
             inkscape:connector-curvature="0" /></g><g
           id="g216"
           transform="translate(169.4374,177.4919)"><path
             d="m 0,0 v 0 m -54.091,0 v 0 m -2.131,-38.689 v 0 m 51.229,-21.227 v 0 m -61.58,-12.482 v 0"
             style="fill:none;stroke:#bb0023;stroke-width:2.3039999;stroke-linecap:round;stroke-linejoin:round;stroke-miterlimit:4;stroke-dasharray:none;stroke-opacity:1"
             id="path218"
             inkscape:connector-curvature="0" /></g><g
           id="g220"
           transform="translate(139.4326,28.1926)"><path
             d="M 0,0 C -2.723,0.352 -4.329,-2.522 -4.432,-2.714 -4.534,-2.522 -6.144,0.352 -8.866,0 c -2.819,-0.368 -6.681,-5.441 4.43,-12.721 v -0.004 l 0.004,0.003 c 0,0 0,-0.003 0.006,-0.003 v 0.004 C 6.682,-5.441 2.819,-0.368 0,0"
             style="fill:#f5f3d1;fill-opacity:1;fill-rule:nonzero;stroke:none"
             id="path222"
             inkscape:connector-curvature="0" /></g></g></g></g></svg>