<?xml version="1.0" encoding="UTF-8" standalone="no"?>
<!-- Created with Inkscape (http://www.inkscape.org/) -->

<svg
   xmlns:dc="http://purl.org/dc/elements/1.1/"
   xmlns:cc="http://creativecommons.org/ns#"
   xmlns:rdf="http://www.w3.org/1999/02/22-rdf-syntax-ns#"
   xmlns:svg="http://www.w3.org/2000/svg"
   xmlns="http://www.w3.org/2000/svg"
   xmlns:sodipodi="http://sodipodi.sourceforge.net/DTD/sodipodi-0.dtd"
   xmlns:inkscape="http://www.inkscape.org/namespaces/inkscape"
   version="1.1"
   id="svg2"
   xml:space="preserve"
   width="770.7973"
   height="777.28931"
   viewBox="0 0 770.7973 777.28931"
   sodipodi:docname="rounded_dec.svg"
   inkscape:version="0.92.1 r15371"><metadata
     id="metadata8"><rdf:RDF><cc:Work
         rdf:about=""><dc:format>image/svg+xml</dc:format><dc:type
           rdf:resource="http://purl.org/dc/dcmitype/StillImage" /><dc:title></dc:title></cc:Work></rdf:RDF></metadata><defs
     id="defs6"><clipPath
       clipPathUnits="userSpaceOnUse"
       id="clipPath18"><path
         d="M 0,0 H 578.098 V 582.967 H 0 Z"
         id="path16"
         inkscape:connector-curvature="0" /></clipPath></defs><sodipodi:namedview
     pagecolor="#ffffff"
     bordercolor="#666666"
     borderopacity="1"
     objecttolerance="10"
     gridtolerance="10"
     guidetolerance="10"
     inkscape:pageopacity="0"
     inkscape:pageshadow="2"
     inkscape:window-width="1920"
     inkscape:window-height="1027"
     id="namedview4"
     showgrid="false"
     inkscape:zoom="0.85876494"
     inkscape:cx="398.22948"
     inkscape:cy="371.42833"
     inkscape:window-x="-8"
     inkscape:window-y="-8"
     inkscape:window-maximized="1"
     inkscape:current-layer="g10" /><g
     id="g10"
     inkscape:groupmode="layer"
     inkscape:label="Vector Smart Object7"
     transform="matrix(1.3333333,0,0,-1.3333333,0,777.28933)"><g
       id="g20"
       transform="translate(346.2636,473.29)"><path
         d="m 0,0 c -6.73,0 -12.194,3.818 -14.716,10.535 -0.048,0.133 -0.097,0.267 -0.144,0.403 -9.022,-3.842 -18.613,-3.882 -26.976,0.137 -0.274,0.131 -0.543,0.265 -0.81,0.404 -4.461,-3.629 -9.777,-6.944 -16.108,-9.687 -1.301,-0.562 -2.809,0.037 -3.37,1.333 -0.563,1.299 0.034,2.81 1.333,3.371 5.262,2.276 9.763,4.962 13.613,7.884 -6.646,5.185 -10.579,13.015 -10.783,21.896 -0.362,15.843 6.765,24.662 11.048,28.509 4.982,4.476 11.045,6.736 16.215,6.067 9.386,-1.225 11.548,-9.319 11.379,-13.431 0,-0.225 -0.332,-23.893 -19.166,-42.236 6.96,-2.934 14.895,-2.592 22.388,0.812 -1.735,12.315 5.158,24.996 10.999,31.224 4.247,4.532 8.42,6.473 11.748,5.459 3.424,-1.041 5.766,-3.731 6.424,-7.377 0.698,-3.866 0.255,-14.434 -18.876,-29.051 -1.445,-1.102 -2.928,-2.101 -4.437,-2.982 0.098,-0.317 0.207,-0.625 0.324,-0.935 2.866,-7.646 9.181,-7.617 12.69,-6.926 6.91,1.369 14.152,7.676 13.918,14.887 -0.044,1.369 0.998,2.531 2.364,2.638 1.367,0.095 2.573,-0.88 2.74,-2.241 0.12,-0.832 1.524,-8.289 12.756,-7.806 11.7,0.516 12.507,8.809 12.535,9.161 0.115,1.41 1.362,2.469 2.762,2.348 1.412,-0.114 2.463,-1.352 2.347,-2.761 C 51.828,17.088 47.712,8.338 34.779,7.768 27.555,7.457 22.959,9.887 20.201,12.885 17.163,6.437 10.329,1.68 3.773,0.381 2.48,0.125 1.219,0 0,0 m -32.542,65.845 c -3.438,0 -7.521,-1.795 -10.945,-4.873 -3.628,-3.257 -9.666,-10.785 -9.351,-24.577 0.175,-7.685 3.737,-14.406 9.715,-18.64 18.298,16.688 18.675,38.628 18.679,39.781 0.025,0.819 0.011,7.331 -6.917,8.235 -0.384,0.049 -0.777,0.074 -1.181,0.074 M 4.835,47.818 c -1.053,0 -3.308,-1.02 -6.194,-4.102 -5.658,-6.034 -10.251,-15.972 -9.825,-25.003 0.767,0.503 1.524,1.041 2.272,1.614 13.793,10.538 17.796,19.338 16.943,24.064 -0.314,1.739 -1.304,2.911 -2.87,3.383 -0.09,0.029 -0.198,0.044 -0.326,0.044"
         style="fill:#f5f3d1;fill-opacity:1;fill-rule:nonzero;stroke:none"
         id="path22"
         inkscape:connector-curvature="0" /></g><g
       id="g24"
       transform="translate(225.5556,473.29)"><path
         d="M 0,0 C -1.218,0 -2.477,0.125 -3.768,0.381 -10.33,1.68 -17.162,6.437 -20.2,12.885 -22.958,9.883 -27.566,7.453 -34.778,7.768 c -12.933,0.57 -17.049,9.32 -17.419,13.867 -0.114,1.409 0.937,2.647 2.348,2.761 1.406,0.098 2.637,-0.927 2.76,-2.328 0.09,-0.902 1.199,-8.68 12.536,-9.181 11.587,-0.517 12.714,7.466 12.756,7.806 0.167,1.361 1.385,2.336 2.74,2.241 1.367,-0.107 2.407,-1.269 2.364,-2.638 -0.233,-7.211 7.01,-13.518 13.92,-14.887 3.508,-0.695 9.822,-0.722 12.69,6.926 0.116,0.31 0.223,0.618 0.322,0.935 -1.507,0.885 -2.989,1.88 -4.435,2.982 -19.133,14.617 -19.574,25.185 -18.877,29.051 0.659,3.646 3,6.336 6.423,7.377 3.33,1.003 7.502,-0.927 11.75,-5.459 5.841,-6.228 12.734,-18.911 10.999,-31.224 7.494,-3.404 15.425,-3.746 22.389,-0.812 -18.835,18.347 -19.169,42.032 -19.17,42.336 -0.167,4.012 1.994,12.106 11.383,13.331 5.167,0.675 11.231,-1.591 16.214,-6.065 C 51.196,60.938 58.324,52.121 57.962,36.276 57.758,27.395 53.825,19.565 47.18,14.38 51.029,11.458 55.53,8.772 60.792,6.496 62.091,5.935 62.688,4.424 62.125,3.125 61.564,1.829 60.054,1.23 58.755,1.792 52.424,4.535 47.11,7.846 42.649,11.479 42.382,11.342 42.111,11.206 41.837,11.077 33.474,7.058 23.883,7.098 14.861,10.938 14.814,10.802 14.764,10.668 14.714,10.535 12.196,3.818 6.731,0 0,0 m 32.544,65.845 c -0.403,0 -0.797,-0.025 -1.18,-0.074 -6.93,-0.904 -6.944,-7.416 -6.924,-8.155 0.01,-1.217 0.39,-23.169 18.686,-39.861 5.974,4.236 9.537,10.955 9.712,18.64 0.317,13.794 -5.722,21.32 -9.349,24.579 -3.425,3.076 -7.507,4.871 -10.945,4.871 M -4.834,47.816 c -0.127,0 -0.235,-0.013 -0.327,-0.042 -1.562,-0.472 -2.555,-1.644 -2.868,-3.383 -0.854,-4.726 3.149,-13.526 16.944,-24.064 0.748,-0.573 1.503,-1.111 2.27,-1.61 0.427,9.027 -4.166,18.965 -9.825,24.999 -2.887,3.078 -5.139,4.1 -6.194,4.1"
         style="fill:#f5f3d1;fill-opacity:1;fill-rule:nonzero;stroke:none"
         id="path26"
         inkscape:connector-curvature="0" /></g><g
       id="g28"
       transform="translate(297.9365,582.8857)"><path
         d="m 0,0 c -7.388,0.956 -11.744,-6.843 -12.024,-7.364 -0.279,0.521 -4.644,8.32 -12.03,7.364 -7.65,-0.998 -18.129,-14.764 12.018,-34.514 v -0.011 l 0.012,0.007 c 0,0 0,-0.007 0.017,-0.007 v 0.011 C 18.13,-14.764 7.648,-0.998 0,0"
         style="fill:#f5f3d1;fill-opacity:1;fill-rule:nonzero;stroke:none"
         id="path30"
         inkscape:connector-curvature="0" /></g><g
       id="g32"
       transform="translate(225.5566,109.6766)"><path
         d="m 0,0 c 6.73,0 12.194,-3.817 14.716,-10.535 0.047,-0.133 0.097,-0.267 0.144,-0.403 9.022,3.842 18.613,3.882 26.976,-0.136 0.274,-0.132 0.543,-0.266 0.81,-0.405 4.461,3.629 9.776,6.944 16.108,9.687 1.301,0.563 2.809,-0.037 3.37,-1.333 0.563,-1.299 -0.034,-2.81 -1.333,-3.37 -5.262,-2.277 -9.763,-4.963 -13.613,-7.885 6.646,-5.185 10.579,-13.014 10.783,-21.896 0.362,-15.843 -6.765,-24.661 -11.048,-28.508 -4.982,-4.477 -11.045,-6.736 -16.215,-6.068 -9.386,1.225 -11.548,9.319 -11.378,13.431 0,0.225 0.331,23.894 19.165,42.236 -6.96,2.934 -14.895,2.592 -22.389,-0.812 1.736,-12.314 -5.157,-24.995 -10.998,-31.225 -4.247,-4.531 -8.42,-6.472 -11.748,-5.458 -3.424,1.041 -5.766,3.731 -6.424,7.377 -0.698,3.867 -0.256,14.434 18.876,29.05 1.445,1.103 2.929,2.103 4.438,2.984 -0.1,0.316 -0.208,0.625 -0.325,0.934 -2.866,7.646 -9.181,7.617 -12.69,6.927 -6.91,-1.369 -14.151,-7.677 -13.918,-14.888 0.043,-1.369 -0.998,-2.53 -2.364,-2.637 -1.367,-0.095 -2.572,0.879 -2.74,2.241 -0.121,0.831 -1.524,8.289 -12.755,7.805 -11.701,-0.516 -12.508,-8.808 -12.536,-9.162 -0.115,-1.409 -1.362,-2.468 -2.762,-2.347 -1.411,0.115 -2.462,1.352 -2.348,2.761 0.37,4.547 4.486,13.297 17.419,13.867 7.224,0.311 11.82,-2.119 14.578,-5.117 3.038,6.449 9.872,11.205 16.428,12.504 C -2.48,-0.125 -1.219,0 0,0 m 32.542,-65.845 c 3.439,0 7.52,1.795 10.945,4.872 3.628,3.258 9.666,10.787 9.351,24.579 -0.175,7.684 -3.738,14.405 -9.715,18.639 -18.297,-16.688 -18.675,-38.629 -18.679,-39.78 -0.025,-0.82 -0.011,-7.331 6.917,-8.235 0.384,-0.05 0.777,-0.075 1.181,-0.075 m -37.377,18.027 c 1.053,0 3.307,1.02 6.195,4.102 5.657,6.034 10.251,15.973 9.824,25.003 -0.767,-0.503 -1.524,-1.041 -2.272,-1.613 -13.792,-10.539 -17.796,-19.339 -16.943,-24.065 0.315,-1.739 1.304,-2.911 2.87,-3.383 0.09,-0.029 0.199,-0.044 0.326,-0.044"
         style="fill:#f5f3d1;fill-opacity:1;fill-rule:nonzero;stroke:none"
         id="path34"
         inkscape:connector-curvature="0" /></g><g
       id="g36"
       transform="translate(346.2646,109.6766)"><path
         d="m 0,0 c 1.218,0 2.477,-0.125 3.768,-0.381 6.561,-1.299 13.394,-6.055 16.432,-12.504 2.758,3.002 7.366,5.432 14.578,5.117 12.933,-0.57 17.049,-9.32 17.419,-13.867 0.114,-1.409 -0.936,-2.646 -2.348,-2.761 -1.406,-0.097 -2.637,0.926 -2.759,2.329 -0.091,0.902 -1.2,8.679 -12.537,9.18 -11.586,0.518 -12.713,-7.465 -12.755,-7.805 -0.167,-1.362 -1.386,-2.336 -2.741,-2.241 -1.367,0.107 -2.408,1.268 -2.365,2.637 0.235,7.211 -7.009,13.519 -13.919,14.888 -3.508,0.694 -9.822,0.721 -12.69,-6.927 -0.115,-0.309 -0.224,-0.618 -0.322,-0.934 1.507,-0.885 2.989,-1.881 4.434,-2.984 19.133,-14.616 19.575,-25.183 18.878,-29.05 -0.659,-3.646 -3,-6.336 -6.423,-7.377 -3.33,-1.003 -7.502,0.927 -11.75,5.458 -5.841,6.23 -12.734,18.912 -11,31.225 -7.493,3.404 -15.424,3.746 -22.387,0.812 18.834,-18.346 19.168,-42.032 19.17,-42.335 0.167,-4.013 -1.995,-12.107 -11.384,-13.332 -5.167,-0.674 -11.231,1.591 -16.213,6.066 -4.282,3.849 -11.41,12.665 -11.048,28.51 0.204,8.882 4.137,16.711 10.782,21.896 -3.849,2.922 -8.35,5.608 -13.612,7.885 -1.299,0.56 -1.896,2.071 -1.333,3.37 0.561,1.296 2.071,1.896 3.37,1.333 6.33,-2.743 11.645,-6.054 16.106,-9.687 0.267,0.137 0.538,0.273 0.811,0.403 8.364,4.018 17.955,3.978 26.977,0.138 0.047,0.136 0.096,0.27 0.146,0.403 C -12.196,-3.817 -6.732,0 0,0 m -32.544,-65.845 c 0.403,0 0.797,0.025 1.18,0.075 6.93,0.904 6.943,7.415 6.924,8.155 -0.01,1.217 -0.39,23.168 -18.686,39.86 -5.975,-4.236 -9.537,-10.955 -9.712,-18.639 -0.317,-13.794 5.723,-21.321 9.349,-24.58 3.425,-3.076 7.507,-4.871 10.945,-4.871 m 37.378,18.029 c 0.127,0 0.235,0.013 0.327,0.042 1.562,0.472 2.555,1.644 2.868,3.383 0.854,4.726 -3.149,13.526 -16.944,24.065 -0.747,0.572 -1.504,1.11 -2.27,1.609 -0.427,-9.026 4.165,-18.965 9.825,-24.999 2.887,-3.078 5.139,-4.1 6.194,-4.1"
         style="fill:#f5f3d1;fill-opacity:1;fill-rule:nonzero;stroke:none"
         id="path38"
         inkscape:connector-curvature="0" /></g><g
       id="g40"
       transform="translate(273.8837,0.081)"><path
         d="M 0,0 C 7.388,-0.955 11.744,6.843 12.024,7.363 12.303,6.843 16.668,-0.955 24.054,0 31.703,0.997 42.183,14.764 12.036,34.515 v 0.01 l -0.012,-0.006 c 0,0 0,0.006 -0.017,0.006 v -0.01 C -18.13,14.764 -7.648,0.997 0,0"
         style="fill:#f5f3d1;fill-opacity:1;fill-rule:nonzero;stroke:none"
         id="path42"
         inkscape:connector-curvature="0" /></g><g
       id="g44"
       transform="translate(264.1074,25.7187)"><path
         d="m 0,0 c -0.076,0 -0.152,0.004 -0.229,0.01 -57.446,5.101 -110.688,28.074 -153.969,66.433 -42.932,38.048 -72.074,87.605 -84.276,143.311 -0.301,1.377 0.57,2.737 1.947,3.039 1.376,0.301 2.736,-0.571 3.038,-1.947 11.968,-54.645 40.558,-103.257 82.675,-140.583 C -108.355,32.633 -56.128,10.098 0.222,5.093 1.626,4.969 2.663,3.729 2.538,2.326 2.42,0.999 1.307,0 0,0"
         style="fill:#f5f3d1;fill-opacity:1;fill-rule:nonzero;stroke:none"
         id="path46"
         inkscape:connector-curvature="0" /></g><g
       id="g48"
       transform="translate(25.4326,333.6724)"><path
         d="m 0,0 c -0.136,0 -0.274,0.011 -0.413,0.034 -1.391,0.226 -2.335,1.537 -2.108,2.928 19.51,119.924 117.603,211.95 238.544,223.79 1.401,0.145 2.651,-0.889 2.789,-2.291 0.137,-1.402 -0.889,-2.65 -2.291,-2.788 C 117.88,210.058 21.654,119.784 2.516,2.142 2.312,0.89 1.229,0 0,0"
         style="fill:#f5f3d1;fill-opacity:1;fill-rule:nonzero;stroke:none"
         id="path50"
         inkscape:connector-curvature="0" /></g><g
       id="g52"
       transform="translate(550.9482,330.4482)"><path
         d="m 0,0 c -1.241,0 -2.329,0.908 -2.519,2.173 -8.754,58.33 -37.452,112.736 -80.804,153.195 -43.562,40.652 -100.179,65.522 -159.424,70.027 -1.405,0.107 -2.458,1.333 -2.351,2.738 0.108,1.406 1.319,2.461 2.738,2.35 60.395,-4.593 118.113,-29.944 162.517,-71.385 C -35.65,117.857 -6.397,62.396 2.526,2.931 2.736,1.537 1.776,0.238 0.383,0.028 0.254,0.009 0.127,0 0,0"
         style="fill:#f5f3d1;fill-opacity:1;fill-rule:nonzero;stroke:none"
         id="path54"
         inkscape:connector-curvature="0" /></g><g
       id="g56"
       transform="translate(303.3828,25.1054)"><path
         d="m 0,0 c -1.342,0 -2.467,1.05 -2.545,2.406 -0.08,1.407 0.995,2.613 2.401,2.694 118.039,6.759 217.689,92.206 242.332,207.792 0.293,1.376 1.646,2.26 3.027,1.963 1.378,-0.294 2.257,-1.65 1.963,-3.028 C 222.059,94.001 120.477,6.896 0.148,0.004 0.099,0.002 0.05,0 0,0"
         style="fill:#f5f3d1;fill-opacity:1;fill-rule:nonzero;stroke:none"
         id="path58"
         inkscape:connector-curvature="0" /></g><g
       id="g60"
       transform="translate(259.0898,12.7421)"><path
         d="m 0,0 c -0.087,0 -0.175,0.004 -0.264,0.014 -60.303,6.187 -115.928,31.131 -160.861,72.133 -44.656,40.751 -74.53,93.434 -86.393,152.357 -0.278,1.381 0.616,2.725 1.998,3.005 1.38,0.272 2.726,-0.617 3.004,-1.999 11.648,-57.851 40.982,-109.579 84.83,-149.592 C -113.567,35.656 -58.951,11.165 0.257,5.09 1.659,4.946 2.678,3.692 2.535,2.291 2.4,0.979 1.292,0 0,0"
         style="fill:#f5f3d1;fill-opacity:1;fill-rule:nonzero;stroke:none"
         id="path62"
         inkscape:connector-curvature="0" /></g><g
       id="g64"
       transform="translate(11.7221,332.7109)"><path
         d="m 0,0 c -0.126,0 -0.255,0.01 -0.384,0.029 -1.394,0.211 -2.352,1.511 -2.142,2.905 19.007,125.834 120.622,223.583 247.108,237.709 1.406,0.157 2.663,-0.852 2.819,-2.252 0.157,-1.402 -0.852,-2.663 -2.252,-2.82 C 120.955,221.702 21.182,125.724 2.52,2.171 2.328,0.907 1.241,0 0,0"
         style="fill:#f5f3d1;fill-opacity:1;fill-rule:nonzero;stroke:none"
         id="path66"
         inkscape:connector-curvature="0" /></g><g
       id="g68"
       transform="translate(564.4726,330.5488)"><path
         d="m 0,0 c -1.248,0 -2.34,0.918 -2.521,2.191 -8.719,60.95 -38.181,118.044 -82.96,160.765 -44.923,42.859 -103.592,69.605 -165.202,75.31 -1.402,0.13 -2.435,1.373 -2.304,2.776 0.13,1.403 1.367,2.431 2.775,2.306 62.748,-5.811 122.503,-33.051 168.254,-76.7 C -36.356,123.14 -6.35,64.992 2.529,2.914 2.729,1.519 1.761,0.226 0.365,0.026 0.243,0.009 0.121,0 0,0"
         style="fill:#f5f3d1;fill-opacity:1;fill-rule:nonzero;stroke:none"
         id="path70"
         inkscape:connector-curvature="0" /></g><g
       id="g72"
       transform="translate(311.914,12.2851)"><path
         d="m 0,0 c -1.311,0 -2.427,1.004 -2.54,2.336 -0.118,1.404 0.923,2.639 2.327,2.759 60.166,5.113 115.807,29.178 160.905,69.591 44.126,39.542 74.884,93.107 86.606,150.828 0.28,1.38 1.623,2.272 3.009,1.992 1.38,-0.28 2.272,-1.627 1.992,-3.009 C 240.358,165.708 209.035,111.154 164.099,70.886 118.168,29.728 61.5,5.219 0.218,0.009 0.146,0.003 0.072,0 0,0"
         style="fill:#f5f3d1;fill-opacity:1;fill-rule:nonzero;stroke:none"
         id="path74"
         inkscape:connector-curvature="0" /></g><g
       id="g76"
       transform="translate(560.626,269.0685)"
       style=""><path
         d="m 0,0 c -9.649,0 -17.472,7.822 -17.472,17.472 0,9.649 7.823,17.471 17.472,17.471 9.649,0 17.472,-7.822 17.472,-17.471 C 17.472,7.822 9.649,0 0,0"
         style="fill:#f5f3d1;fill-opacity:1;fill-rule:nonzero;stroke:none"
         id="path78"
         inkscape:connector-curvature="0" /></g><g
       id="g80"
       transform="translate(17.4716,269.0685)"><path
         d="m 0,0 c -9.649,0 -17.472,7.822 -17.472,17.472 0,9.649 7.823,17.471 17.472,17.471 9.649,0 17.472,-7.822 17.472,-17.471 C 17.472,7.822 9.649,0 0,0"
         style="fill:#f5f3d1;fill-opacity:1;fill-rule:nonzero;stroke:none"
         id="path82"
         inkscape:connector-curvature="0" /></g><g
       id="g84"
       transform="translate(565.4366,292.7203)"
       style=""><path
         d="M 0,0 C -2.955,0.382 -4.698,-2.737 -4.81,-2.945 -4.921,-2.737 -6.667,0.382 -9.622,0 c -3.059,-0.399 -7.251,-5.905 4.808,-13.806 v -0.004 l 0.004,0.003 c 0,0 0,-0.003 0.007,-0.003 v 0.004 C 7.252,-5.905 3.059,-0.399 0,0"
         style="fill:#bb0023;fill-opacity:1;fill-rule:nonzero;stroke:none"
         id="path86"
         inkscape:connector-curvature="0" /></g><g
       id="g88"
       transform="translate(22.2822,292.7203)"><path
         d="M 0,0 C -2.955,0.382 -4.698,-2.737 -4.81,-2.945 -4.921,-2.737 -6.667,0.382 -9.622,0 c -3.059,-0.399 -7.251,-5.905 4.808,-13.806 v -0.004 l 0.004,0.003 c 0,0 0,-0.003 0.007,-0.003 v 0.004 C 7.252,-5.905 3.059,-0.399 0,0"
         style="fill:#bb0023;fill-opacity:1;fill-rule:nonzero;stroke:none"
         id="path90"
         inkscape:connector-curvature="0" /></g></g></svg>